<svg version="1.2" xmlns="http://www.w3.org/2000/svg" viewBox="0 0 120 110" width="120" height="110">
	<title>logo-svg</title>
	<style>
		.s0 { fill: #000000 } 
		.s1 { fill: #dbd7d2 } 
		.s2 { fill: none;stroke: #ffdd9e;stroke-linecap: round;stroke-linejoin: round;stroke-dasharray: 1,2 } 
	</style>
	<g id="Layer">
		<g id="Layer">
			<path id="Layer" fill-rule="evenodd" class="s0" d="m68.1 20.4c0.8 2.4 2.6 3.2 4.9 3.7 10.6 2.5 19.6 7.5 25 17.2 1.7 3 2.7 6.7 2.8 10.2 0.2 17.9-11.3 33.6-28.3 39.5-8 2.8-15.8 2.9-24.1 0.8-14.5-3.8-23.7-13.2-28.9-26.6-2.7-6.7-3-13.8-1.6-21.3 2.3-11.2 8.3-19.7 17-26.4 10.4-7.9 22.4-9.3 34.9-6.4 2.4 0.6 4.6 1.7 6.9 2.5q-0.2 0.6-0.4 1.1-2.6-1.1-5.1-2.2-0.2 0.2-0.4 0.4 2.8 2.4 5.5 4.8c-4.2-1.4-6.9-5.6-11.8-5.9 1.3 3.1 2.5 5.9 3.7 8.7-0.8-1.2-1.9-2.2-2.3-3.4-1-3-2.9-4.7-5.8-5.7 0 8.8 0 17.5 0 26.2 13.4 0.7 26.5 1.5 38.3 8.7-1-4.3-3.1-7.5-6-10.2-7.8-7.3-17.4-10.6-27.8-11.9-1.2-0.1-2.4-0.5-3.5-0.8q0-0.3 0.1-0.7 3.4 0 6.7 0c0.1-0.8 0.2-1.6 0.2-2.3zm-40.7 22.4c-1 0.7-2 1.5-3.1 2-2.6 1.1-4.7 2.6-5.2 5.7 3.7 0 7.2 0 10.8 0 0.1-1.8-0.1-3.3 0.3-4.7 0.7-2.8-0.5-3.4-2.8-3 3.3-0.9 3.6-3.9 4.5-6.6 2.5-7.9 5.8-15.3 12.4-20.8 0.3-0.2 0.4-0.7 0.8-1.2-9.7 2.2-23.5 16.3-23.7 24.3 1.4-1.5 2.6-2.9 3.9-4.2-4.9 6.6-6.3 9.3-5.6 11.5q3.9-1.5 7.7-3zm42.6 35.6c4.1-1.5 8.1-2 10.6-4.3 2.6-2.2 3.6-6.1 5.3-9.3q0.3 0.1 0.7 0.2c-0.6 2.3-1.2 4.7-1.9 7.5 6.3-4.1 11.4-8.4 13.4-15.5-1.4 0.6-2.6 1.6-4 2.3-1.3 0.7-2.8 2.1-4.5 0.2 2.3-1.2 4.6-2.1 6.5-3.5 4.3-3 3.7-7 0.2-8.8-2.3-1.2-4.5-2.8-6.9-3.6-9.5-3-19.4-3.8-29.4-4.5-0.1 3.9-0.1 7.6-0.1 11.4 3.1 0.2 6.1 0.4 9 0.6q0 0.6 0 1.2c-2.4 0-4.8-0.1-7.1 0.1-0.7 0.1-1.9 0.8-2 1.3q-0.2 4 0 8.1c0 0.6 1 1.7 1.5 1.7 3.1 0 6.2-0.4 9.5-0.6 0.3-4.1 0.6-7.9 0.9-12.1 4.4 0 9.5 0 14.5 0q0.1 0.3 0.1 0.6c-4.5 0.4-9 0.8-13.5 1.2 0 3.6 0 6.7 0 10 4.4 0.1 8.6-2.1 12.9-1.1-0.6 0.8-1.3 1.1-1.9 1.2-3.1 0.6-6.1 1.3-9.2 1.7-1.6 0.2-2.5 0.8-2.7 2.6-0.5 3.4-1.1 6.8-1.9 11.4zm-24.9-27.6c0.7-13.7 1.7-26.5 8.3-38.4-0.6-0.1-1.1-0.3-1.3-0.1-3.6 2.8-7.7 5.1-10.6 8.5-3 3.6-5.4 8-7 12.4-1.7 4.9-2.2 10.2-3 15.4-0.1 0.6 0.9 2 1.4 2.1 4 0.2 8 0.1 12.2 0.1zm13-39.6c-4.9 2.3-6 7.1-7.4 11.2-3 9.1-4.1 18.5-3.8 28.3 4 0 7.5 0 11.2 0 0-13.2 0-26.2 0-39.5zm-10.5 54c0.8 4.3 1.6 8.3 2.6 12.2 0.2 0.7 1.4 1.4 2.2 1.5 2.1 0.2 4.2 0.1 6.6 0.1-0.1-3.5-0.3-6.5-0.5-9.6-0.1-2.5-0.4-4.8-3.9-4.2-0.2 0.1-0.6-0.4-1.4-1 2-0.3 3.4-0.6 4.9-0.8 0-3.7 0-7.2 0-10.8-3.2 0.1-6.1 0.1-9 0-1.6 0-2.2 0.7-2.1 2.3 0.2 1.9 0.4 3.9 0.3 5.9-0.2 2.2 0.7 2.8 2.7 2.8 0.8 0 1.6 0.5 2.5 0.8q-0.2 0.4-0.3 0.8c-1.4 0-2.8 0-4.6 0zm-13.8 7.9c-1.1-3.7-2.1-6.8-3.2-9.9-0.2-0.6-0.5-1.3-1-1.5-3.2-1.5-6.5-2.9-9.7-4.3q-0.3 0.2-0.5 0.4c1.7 2.8 3.5 5.6 5.4 8.6-1.2-0.1-2-0.1-2.8-0.2 1.9 8.3 14.4 20.5 22.3 22.2-2.5-3.3-5.3-7.1-8.2-10.9-1-1.3-2.2-2.5-3.5-3.4-1.5-1.2-3.2-2-4.8-3q0.3-0.6 0.6-1.1c1.7 0.9 3.3 1.8 5.4 3.1zm14.2 4.5c-0.6-3.8-1.2-7.4-1.9-11-0.2-0.7-0.5-1.7-1-1.8-3.9-0.9-7.8-1.5-11.8-2.2-0.8 8.7 6.3 15.8 14.7 15zm-16.6-25c0.2 2.4 0.4 4.6 0.8 6.7 0.1 0.6 0.8 1.4 1.4 1.5 3.7 0.9 7.6 1.6 11.8 2.5 0-3.4 0.1-6.2-0.1-9-0.1-0.6-1.1-1.6-1.7-1.6-3.9-0.2-7.8-0.1-12.3-0.1zm39.3 12.5c-3.2 0-5.8-0.1-8.4 0.1-0.8 0.1-2.1 1-2.1 1.5-0.2 4-0.1 8.1-0.1 12.4 2.6-0.3 4.8-0.4 7-0.8 0.6-0.1 1.3-0.9 1.4-1.5 0.8-3.8 1.4-7.5 2.2-11.7zm-3.3 15.5c-5.5 0-10.7 0-16.1 0 1 3.9 2.1 7.6 5.6 10 1.9 1.3 3.8 1.1 5.2-0.2 2.8-2.6 4.4-6 5.3-9.8zm29.4-14.8c-4.2 3-8.5 6.2-12.8 9.3-0.4 0.4-0.8 0.8-1.2 1.2-3.5 4.5-7 9.1-10.1 13.1 11.2-3.9 19.3-12.3 24.1-23.6zm-32 25c7.3-2.3 11.9-7.1 15.6-13.8-3.8 1.1-7 2-10.1 3.1-0.7 0.2-1.3 1-1.6 1.7-1.3 2.8-2.5 5.8-3.9 9zm-26.2-13.6c2.8 6.5 10.7 13.2 14.8 13-1.4-3-2.7-6.1-4.2-9.1-0.2-0.4-0.7-1-1.1-1.1-3.1-1-6.3-1.9-9.5-2.8zm-19.8-24.7c2.5 5.1 7.3 5.6 11.8 7.6-0.2-2.9-0.5-5.2-0.7-7.6-3.8 0-7.2 0-11.1 0z"/>
			<g id="Layer">
				<path id="Layer" fill-rule="evenodd" class="s1" d="m96.1 10.5c-2.1-1.7-4.1-1.7-6.3-0.2 1.6-2.1 1.7-4.1 0.2-6.4 2 1.6 4.1 1.8 6.3 0.3-1.6 2-1.7 4.1-0.2 6.3zm-1.5-1.7c0-0.1-0.1-0.8-0.1-1.5 0-0.5 0.2-1 0.2-1.3 0.1-0.1 0-0.1-0.1-0.1-0.3 0-1 0-1.3 0-0.5 0-1.1-0.2-1.6-0.2-0.1-0.1-0.2 0.1-0.2 0.2 0.1 0.3 0.2 0.8 0.2 1.3-0.1 0.7-0.4 1.3-0.2 1.5 0 0.1 0.7-0.1 1.6-0.1 0.8 0.1 1.3 0.3 1.5 0.2z"/>
			</g>
			<g id="Layer">
				<path id="Layer" fill-rule="evenodd" class="s1" d="m115.5 32.8c-1.8-1.9-3.9-2.2-6.2-1 1.8-1.8 2.2-3.9 0.9-6.2 1.9 1.8 3.9 2.2 6.3 0.9-1.8 1.9-2.2 3.9-1 6.3zm-1.3-1.8c0.1-0.1 0-0.8 0.1-1.6 0.1-0.4 0.3-0.9 0.4-1.2 0-0.1 0-0.1-0.1-0.2-0.3 0-1 0-1.3-0.1-0.5-0.1-1.1-0.3-1.5-0.4-0.2-0.1-0.3 0.1-0.3 0.2 0.1 0.3 0.1 0.8 0 1.3-0.1 0.7-0.5 1.3-0.4 1.5 0.1 0.1 0.8-0.1 1.6 0.1 0.8 0.1 1.4 0.5 1.5 0.4z"/>
			</g>
			<g id="Layer">
				<path id="Layer" fill-rule="evenodd" class="s1" d="m91.9 62.3c-2.5-0.7-4.4 0-5.9 2.2 0.7-2.5 0.1-4.5-2.2-5.9 2.5 0.7 4.5 0.1 5.9-2.2-0.6 2.5 0 4.5 2.2 5.9zm-2-0.9c0-0.1-0.4-0.7-0.7-1.4-0.1-0.4-0.1-1-0.2-1.3 0 0-0.1-0.1-0.2 0-0.2 0.1-0.8 0.4-1.2 0.5-0.4 0.1-1 0.2-1.5 0.3-0.1 0-0.2 0.2-0.1 0.3 0.1 0.3 0.4 0.7 0.6 1.1 0.2 0.7 0.2 1.4 0.4 1.6 0.1 0.1 0.6-0.4 1.4-0.7 0.8-0.3 1.4-0.3 1.5-0.4z"/>
			</g>
			<g id="Layer">
				<path id="Layer" fill-rule="evenodd" class="s1" d="m75.4 49c-2.6 0.1-4.2 1.4-4.9 3.9-0.1-2.6-1.3-4.3-4-4.9 2.6-0.1 4.3-1.3 5-3.9 0.1 2.6 1.3 4.2 3.9 4.9zm-2.2-0.3c0-0.1-0.6-0.5-1.1-1.1-0.3-0.3-0.5-0.8-0.6-1.1 0-0.1-0.1-0.1-0.2 0-0.2 0.2-0.7 0.6-1 0.9-0.4 0.2-0.9 0.5-1.3 0.7-0.2 0.1-0.1 0.3 0 0.4 0.2 0.2 0.6 0.4 0.9 0.8 0.4 0.6 0.6 1.3 0.8 1.4 0.2 0 0.5-0.6 1.2-1.2 0.6-0.5 1.3-0.6 1.3-0.8z"/>
			</g>
			<g id="Layer">
				<path id="Layer" fill-rule="evenodd" class="s1" d="m54.2 64.5c-1.2-2.3-3.1-3.2-5.7-2.6 2.3-1.3 3.2-3.1 2.6-5.8 1.3 2.3 3.1 3.2 5.8 2.7-2.3 1.3-3.2 3.1-2.7 5.7zm-0.8-2.1c0.2-0.1 0.3-0.8 0.6-1.5 0.2-0.4 0.5-0.7 0.7-1 0-0.1 0-0.2-0.1-0.2-0.3-0.1-0.9-0.3-1.2-0.5-0.4-0.2-0.9-0.6-1.3-0.8-0.1-0.1-0.3 0-0.3 0.1-0.1 0.3-0.2 0.8-0.4 1.2-0.3 0.7-0.8 1.2-0.8 1.4 0 0.1 0.8 0.2 1.5 0.5 0.8 0.4 1.2 0.9 1.3 0.8z"/>
			</g>
			<g id="Layer">
				<path id="Layer" fill-rule="evenodd" class="s1" d="m33.1 68.5c-2.6-0.4-4.4 0.6-5.6 3 0.4-2.6-0.5-4.4-3-5.6 2.6 0.4 4.5-0.5 5.6-2.9-0.3 2.5 0.6 4.4 3 5.5zm-2.2-0.6c0.1-0.2-0.4-0.7-0.8-1.3-0.2-0.4-0.3-0.9-0.4-1.2 0-0.1-0.1-0.1-0.2-0.1-0.2 0.2-0.8 0.5-1.1 0.7-0.5 0.2-1 0.4-1.5 0.5-0.1 0.1-0.1 0.3-0.1 0.4 0.2 0.2 0.6 0.5 0.8 1 0.3 0.6 0.4 1.3 0.6 1.4 0.1 0.1 0.6-0.5 1.3-0.8 0.7-0.4 1.4-0.5 1.4-0.6z"/>
			</g>
			<g id="Layer">
				<path id="Layer" fill-rule="evenodd" class="s1" d="m9.4 98c-1.4-2.2-3.4-2.9-5.9-2.1 2.1-1.5 2.9-3.4 2-6 1.5 2.1 3.4 2.9 6 2.1-2.1 1.5-2.9 3.4-2.1 6zm-0.9-2.1c0.1 0 0.1-0.8 0.3-1.5 0.2-0.4 0.5-0.8 0.7-1.1 0-0.1 0-0.2-0.1-0.2-0.3 0-1-0.2-1.3-0.3-0.5-0.2-1-0.5-1.4-0.7-0.1-0.1-0.3 0-0.3 0.1 0 0.3 0 0.8-0.2 1.3-0.3 0.6-0.8 1.2-0.7 1.4 0 0.1 0.8 0.1 1.6 0.4 0.7 0.3 1.2 0.7 1.4 0.6z"/>
			</g>
			<path id="Layer" class="s2" d="m72.5 46.2l19.4-36.3"/>
			<path id="Layer" class="s2" d="m96.8 11.1l12.5 13.6"/>
			<path id="Layer" class="s2" d="m90.9 58.5l20.5-25.6"/>
			<path id="Layer" class="s2" d="m73.4 51.3l10.8 6.4"/>
			<path id="Layer" class="s2" d="m69 50.2l-12.8 7.8"/>
			<path id="Layer" class="s2" d="m50 62.3l-18.3 3.6"/>
			<path id="Layer" class="s2" d="m26.8 68.3l-17.1 22.9"/>
		</g>
	</g>
</svg>